<svg width="24" height="24" viewBox="0 0 24 24" fill="none" xmlns="http://www.w3.org/2000/svg">
<rect width="24" height="24" fill="#F4ABBA"/>
<circle cx="12.0944" cy="11.9996" r="5.95276" fill="white"/>
<g clip-path="url(#clip0_584_138)">
<path d="M15.2073 5.9268C15.2073 4.44649 12 3.21289 12 3.21289V9.38087C12 9.38087 15.2073 7.40712 15.2073 5.9268Z" fill="#EA596E"/>
<path d="M8.79297 5.9268C8.79297 4.44649 12.0003 3.21289 12.0003 3.21289V9.38087C12.0006 9.38087 8.79297 7.40712 8.79297 5.9268Z" fill="#EA596E"/>
<path d="M14.2202 5.9268C14.2202 6.87248 11.9998 8.88743 11.9998 8.88743C11.9998 8.88743 9.7793 6.87248 9.7793 5.9268C9.7793 4.69321 11.9998 3.21289 11.9998 3.21289C11.9998 3.21289 14.2202 4.69321 14.2202 5.9268Z" fill="#F4ABBA"/>
<path d="M10.7656 7.12793C11.3953 8.17747 10.3201 9.37209 9.69068 9.16213C9.06105 8.95217 8.85109 9.5818 9.48072 9.79176C10.1103 10.0017 11.4673 9.69406 12.2092 8.95242C12.4191 8.74246 12.6289 8.74246 12.6289 8.74246L10.7656 7.12793Z" fill="#BE1931"/>
<path d="M13.2336 7.12793C12.604 8.17747 13.6792 9.37209 14.3085 9.16213C14.9384 8.95217 15.1481 9.5818 14.5185 9.79176C13.8889 10.0017 12.5319 9.69406 11.79 8.95242C11.5801 8.74246 11.3701 8.74246 11.3701 8.74246L13.2336 7.12793Z" fill="#BE1931"/>
<path d="M9.77916 7.40723C10.4088 8.45677 9.4414 10.2114 8.81177 10.0015C8.18215 9.79152 7.97219 10.4214 8.60182 10.6314C9.23144 10.8413 10.5884 10.5337 11.3303 9.79177C11.5402 9.58181 11.75 9.58181 11.75 9.58181L9.77916 7.40723ZM14.2174 7.40723C13.5875 8.45677 14.5549 10.2114 15.1848 10.0015C15.8144 9.79152 16.0241 10.4214 15.3947 10.6314C14.7649 10.8413 13.4082 10.5337 12.6663 9.79177C12.4563 9.58156 12.2464 9.58156 12.2464 9.58156L14.2174 7.40723Z" fill="#EA596E"/>
<path d="M15.1875 11.1944C14.6146 11.3853 13.4799 9.87442 13.7267 8.39411C14.2201 7.16051 12.7398 6.54815 12.7398 5.93111C12.7398 4.42415 12.2387 3.5293 11.992 3.5293C11.7453 3.5293 11.2595 4.42415 11.2595 5.93111C11.2595 6.54815 9.77916 7.16051 10.2726 8.39411C10.5193 9.87442 9.38465 11.3853 8.81177 11.1944C8.18215 10.9844 7.97219 11.824 8.60182 12.0337C9.23144 12.2437 10.3459 11.9022 11.1203 11.1944C11.58 10.7742 11.9996 10.7742 11.9996 10.7742C11.9996 10.7742 12.4193 10.7742 12.8787 11.1941C13.6531 11.902 14.7676 12.2434 15.3972 12.0335C16.0268 11.8237 15.8171 10.9844 15.1875 11.1944Z" fill="#F4ABBA"/>
<path d="M11.1363 9.62715C11.477 9.62715 11.7531 9.351 11.7531 9.01035C11.7531 8.6697 11.477 8.39355 11.1363 8.39355C10.7957 8.39355 10.5195 8.6697 10.5195 9.01035C10.5195 9.351 10.7957 9.62715 11.1363 9.62715Z" fill="#292F33"/>
<path d="M12.8629 9.62715C13.2035 9.62715 13.4797 9.351 13.4797 9.01035C13.4797 8.6697 13.2035 8.39355 12.8629 8.39355C12.5222 8.39355 12.2461 8.6697 12.2461 9.01035C12.2461 9.351 12.5222 9.62715 12.8629 9.62715Z" fill="#292F33"/>
</g>
<defs>
<clipPath id="clip0_584_138">
<rect width="8.88189" height="8.88189" fill="white" transform="translate(7.55859 3.21289)"/>
</clipPath>
</defs>
</svg>
